<svg width="40" height="40" viewBox="0 0 40 40" fill="none" xmlns="http://www.w3.org/2000/svg">
<path d="M20 0C8.97167 0 0 8.97167 0 20C0 31.0283 8.97167 40 20 40C31.0283 40 40 31.0283 40 20C40 8.97167 31.0283 0 20 0ZM20 38.3333C9.89167 38.3333 1.66667 30.1083 1.66667 20C1.66667 9.89167 9.89167 1.66667 20 1.66667C30.1083 1.66667 38.3333 9.89167 38.3333 20C38.3333 30.1083 30.1083 38.3333 20 38.3333Z" fill="#323536"/>
<path d="M29.1665 19.1667H11.8265C11.9315 18.8717 12.0848 18.5917 12.3048 18.345C12.7482 17.8434 13.1832 17.3667 13.4998 17.05L18.2132 12.2517C18.5365 11.9234 18.5315 11.395 18.2032 11.0717C17.8732 10.75 17.3448 10.7534 17.0248 11.0817L12.3165 15.875C11.9865 16.205 11.5248 16.7084 11.0565 17.2384C9.6615 18.8117 9.6615 21.185 11.0565 22.7584C11.5265 23.2884 11.9882 23.7934 12.3115 24.1167L17.0248 28.915C17.1882 29.0817 17.4032 29.1634 17.6182 29.1634C17.8282 29.1634 18.0398 29.0834 18.2032 28.925C18.5315 28.6017 18.5365 28.075 18.2132 27.745L13.4948 22.9417C13.1832 22.63 12.7482 22.1534 12.3032 21.6517C12.0848 21.405 11.9298 21.125 11.8265 20.83H29.1665C29.6265 20.83 29.9998 20.4567 29.9998 19.9967C29.9998 19.5367 29.6265 19.1634 29.1665 19.1634V19.1667Z" fill="#323536"/>
</svg>
