<svg width="60" height="60" viewBox="0 0 60 60" fill="none" xmlns="http://www.w3.org/2000/svg">
<path d="M30 -0.00231934C13.4575 -0.00231934 0 13.4552 0 29.9977C0 46.5402 13.4575 59.9977 30 59.9977C46.5425 59.9977 60 46.5402 60 29.9977C60 13.4552 46.5425 -0.00231934 30 -0.00231934ZM17.5 54.4902V46.2477C17.5 44.1802 19.1825 42.4977 21.25 42.4977H38.75C40.8175 42.4977 42.5 44.1802 42.5 46.2477V54.4902C38.7475 56.4127 34.4975 57.4977 30 57.4977C25.5025 57.4977 21.2525 56.4127 17.5 54.4902ZM45 53.0352V46.2477C45 42.8002 42.195 39.9977 38.75 39.9977H21.25C17.805 39.9977 15 42.8002 15 46.2477V53.0352C7.48 48.1227 2.5 39.6302 2.5 29.9977C2.5 14.8352 14.8375 2.49768 30 2.49768C45.1625 2.49768 57.5 14.8352 57.5 29.9977C57.5 39.6302 52.52 48.1227 45 53.0352ZM30 14.9977C24.485 14.9977 20 19.4827 20 24.9977C20 30.5127 24.485 34.9977 30 34.9977C35.515 34.9977 40 30.5127 40 24.9977C40 19.4827 35.515 14.9977 30 14.9977ZM30 32.4977C25.865 32.4977 22.5 29.1327 22.5 24.9977C22.5 20.8627 25.865 17.4977 30 17.4977C34.135 17.4977 37.5 20.8627 37.5 24.9977C37.5 29.1327 34.135 32.4977 30 32.4977Z" fill="#6B7254"/>
</svg>
