<svg width="37" height="40" viewBox="0 0 37 40" fill="none" xmlns="http://www.w3.org/2000/svg">
<path d="M11.7183 28.77L17.155 23.3333L11.7183 17.8967L12.8967 16.7183L18.3333 22.155L23.77 16.7183L24.9483 17.8967L19.5117 23.3333L24.9483 28.77L23.77 29.9483L18.3333 24.5117L12.8967 29.9483L11.7183 28.77ZM36.6667 8.33333H34.08L31.025 36.2867C30.7917 38.4033 29.0117 40 26.8833 40H9.725C7.59 40 5.80833 38.4 5.58167 36.2783L2.585 8.33333H0V6.66667H10V4.16667C10 1.86833 11.87 0 14.1667 0H22.5C24.7967 0 26.6667 1.86833 26.6667 4.16667V6.66667H36.6667V8.33333ZM11.6667 6.66667H25V4.16667C25 2.78833 23.8783 1.66667 22.5 1.66667H14.1667C12.7883 1.66667 11.6667 2.78833 11.6667 4.16667V6.66667ZM32.4033 8.33333H4.26L7.23833 36.0983C7.375 37.3733 8.44333 38.3333 9.725 38.3333H26.8817C28.16 38.3333 29.2283 37.3767 29.3667 36.105L32.4033 8.33333Z" fill="#6B7254"/>
</svg>
