<svg width="40" height="40" viewBox="0 0 40 40" fill="none" xmlns="http://www.w3.org/2000/svg">
<path d="M35.0024 19.1653V32.4995C35.0024 36.6348 31.6371 40 27.5019 40H7.50051C3.36523 40 0 36.6348 0 32.4995V12.4981C0 8.36286 3.36523 4.99763 7.50051 4.99763H22.5015C22.9616 4.99763 23.3349 5.37099 23.3349 5.83102C23.3349 6.29105 22.9616 6.66441 22.5015 6.66441H7.50051C4.28362 6.66441 1.66678 9.28125 1.66678 12.4981V32.4995C1.66678 35.7164 4.28362 38.3332 7.50051 38.3332H27.5019C30.7187 38.3332 33.3356 35.7164 33.3356 32.4995V19.1653C33.3356 18.7052 33.7089 18.3319 34.169 18.3319C34.629 18.3319 35.0024 18.7052 35.0024 19.1653ZM38.6059 8.15284L23.2999 24.529C23.2199 25.8557 22.7199 27.1041 21.8065 28.1042C20.7031 29.3093 19.1346 30.001 17.5012 30.001H10.8341C10.0257 30.001 9.28729 29.6276 8.8106 28.9809C8.33223 28.3309 8.19555 27.5158 8.43557 26.7424C9.26896 24.0589 11.8341 19.2936 16.1561 18.4585C16.4611 18.4002 16.7678 18.3919 17.0745 18.3802C31.7738 1.47239 31.8255 1.42072 31.8522 1.39405C33.7156 -0.467738 36.7458 -0.462738 38.6059 1.39739C40.4644 3.25918 40.4644 6.29105 38.6059 8.15284ZM23.0366 22.3671L26.4801 18.6836C25.9418 16.7168 24.2216 15.25 22.1915 15.0366C21.0848 16.3084 20.018 17.5368 19.063 18.6352C19.7613 18.8452 20.4347 19.1519 21.0298 19.602C21.9948 20.3287 22.6765 21.2871 23.0366 22.3688V22.3671ZM21.6498 23.7822C21.5498 22.6572 20.9731 21.6454 20.0247 20.9304C19.0046 20.162 17.7079 19.852 16.4711 20.0953C12.9209 20.7804 10.7491 24.9056 10.0257 27.2358C9.94401 27.4975 9.99068 27.7725 10.1507 27.9909C10.3107 28.2075 10.5607 28.3325 10.8324 28.3325H17.4995C18.6663 28.3325 19.7863 27.8392 20.5747 26.9791C21.3731 26.1057 21.7548 24.9706 21.6498 23.7822ZM37.4259 2.5758C36.2158 1.36239 34.2423 1.36239 33.0306 2.57247C32.9056 2.71414 28.0702 8.27452 23.4483 13.5899C25.3584 14.1282 26.9518 15.5017 27.7569 17.3168L37.4059 6.99443C38.6343 5.76268 38.6343 3.78922 37.4242 2.57747L37.4259 2.5758Z" fill="#6B7254"/>
</svg>
