<svg width="66" height="65" viewBox="0 0 66 65" fill="none" xmlns="http://www.w3.org/2000/svg">
<path d="M32.877 51.7293C39.8972 51.7293 45.5883 46.0382 45.5883 39.018C45.5883 31.9977 39.8972 26.3067 32.877 26.3067C25.8567 26.3067 20.1657 31.9977 20.1657 39.018C20.1657 46.0382 25.8567 51.7293 32.877 51.7293ZM46.4378 39.018C46.4378 46.5074 40.3664 52.5788 32.877 52.5788C25.3875 52.5788 19.3162 46.5074 19.3162 39.018C19.3162 31.5285 25.3875 25.4572 32.877 25.4572C40.3664 25.4572 46.4378 31.5285 46.4378 39.018Z" fill="#323536" stroke="#323536" stroke-width="3"/>
<mask id="path-2-inside-1_74_2233" fill="white">
<ellipse cx="46.6823" cy="20.8196" rx="2.51014" ry="2.51014"/>
</mask>
<ellipse cx="46.6823" cy="20.8196" rx="2.51014" ry="2.51014" fill="#323536"/>
<path d="M46.1924 20.8196C46.1924 20.549 46.4117 20.3297 46.6823 20.3297V26.3297C49.7254 26.3297 52.1924 23.8627 52.1924 20.8196H46.1924ZM46.6823 20.3297C46.9528 20.3297 47.1721 20.549 47.1721 20.8196H41.1721C41.1721 23.8627 43.6391 26.3297 46.6823 26.3297V20.3297ZM47.1721 20.8196C47.1721 21.0901 46.9528 21.3094 46.6823 21.3094V15.3094C43.6391 15.3094 41.1721 17.7764 41.1721 20.8196H47.1721ZM46.6823 21.3094C46.4117 21.3094 46.1924 21.0901 46.1924 20.8196H52.1924C52.1924 17.7764 49.7254 15.3094 46.6823 15.3094V21.3094Z" fill="#323536" mask="url(#path-2-inside-1_74_2233)"/>
<path fill-rule="evenodd" clip-rule="evenodd" d="M36.1044 0.859682C34.1052 -0.285394 31.6492 -0.286637 29.6489 0.856419L20.7052 5.96712C20.0942 4.94451 18.9763 4.25973 17.6985 4.25973H12.913C10.98 4.25973 9.41298 5.82673 9.41298 7.75973V12.4232L3.25613 15.9689L4.00472 17.2688L3.25613 15.9689C1.24157 17.1291 0 19.2768 0 21.6016V58.493C0 62.0828 2.91015 64.993 6.5 64.993H59.2534C62.8433 64.993 65.7534 62.0828 65.7534 58.493V21.6095C65.7534 19.2792 64.5061 17.1273 62.484 15.9691L36.1044 0.859682ZM12.4029 13.4653C12.4109 13.3972 12.4143 13.3284 12.413 13.2595V7.75973C12.413 7.48359 12.6368 7.25973 12.913 7.25973H17.6985C17.9746 7.25973 18.1985 7.48359 18.1985 7.75973V8.24561C18.1982 8.26277 18.1982 8.27996 18.1985 8.29715V8.36641C18.1985 9.19484 18.87 9.86641 19.6985 9.86641C20.1501 9.86641 20.5552 9.66679 20.8302 9.35095L31.1373 3.46115C32.2144 2.84566 33.5369 2.84633 34.6134 3.46291L60.993 18.5724C62.0818 19.196 62.7534 20.3547 62.7534 21.6095V58.493C62.7534 60.426 61.1864 61.993 59.2534 61.993H6.5C4.567 61.993 3 60.426 3 58.493V21.6016C3 20.3498 3.66854 19.1933 4.7533 18.5686L11.6435 14.6005C11.6759 14.5825 11.7075 14.5632 11.7384 14.5428C12.1199 14.2919 12.3524 13.8919 12.4029 13.4653Z" fill="#323536"/>
</svg>
