<svg width="97" height="150" viewBox="0 0 97 150" fill="none" xmlns="http://www.w3.org/2000/svg">
<path d="M12.5596 125.492V124.91C13.2193 124.871 13.714 124.793 14.0438 124.677C14.3737 124.561 14.5871 124.328 14.6841 123.979C14.8005 123.629 14.8587 123.105 14.8587 122.407V107.972C14.8587 107.254 14.8005 106.73 14.6841 106.4C14.5871 106.051 14.364 105.818 14.0147 105.702C13.6849 105.566 13.1998 105.489 12.5596 105.469V104.887C13.0446 104.907 13.6461 104.926 14.364 104.945C15.1012 104.965 15.8288 104.974 16.5467 104.974C17.3615 104.974 18.1182 104.965 18.8167 104.945C19.5151 104.926 20.0778 104.907 20.5046 104.887V105.469C19.8644 105.489 19.3793 105.566 19.0495 105.702C18.7197 105.818 18.4965 106.051 18.3801 106.4C18.2637 106.73 18.2055 107.254 18.2055 107.972V122.407C18.2055 123.105 18.2637 123.629 18.3801 123.979C18.4965 124.328 18.7197 124.561 19.0495 124.677C19.3793 124.793 19.8644 124.871 20.5046 124.91V125.492C20.0778 125.453 19.5151 125.434 18.8167 125.434C18.1182 125.414 17.3615 125.405 16.5467 125.405C15.8288 125.405 15.1012 125.414 14.364 125.434C13.6461 125.434 13.0446 125.453 12.5596 125.492ZM0.336449 125.492V124.91C0.99611 124.871 1.49086 124.793 1.82069 124.677C2.15052 124.561 2.36394 124.328 2.46095 123.979C2.57736 123.629 2.63556 123.105 2.63556 122.407V107.972C2.63556 107.254 2.57736 106.73 2.46095 106.4C2.36394 106.051 2.14082 105.818 1.79158 105.702C1.46175 105.566 0.976709 105.489 0.336449 105.469V104.887C0.78269 104.907 1.35504 104.926 2.05351 104.945C2.77138 104.965 3.53775 104.974 4.35262 104.974C5.08989 104.974 5.80776 104.965 6.50622 104.945C7.22409 104.926 7.81585 104.907 8.28149 104.887V105.469C7.64123 105.489 7.15618 105.566 6.82635 105.702C6.49652 105.818 6.2734 106.051 6.15699 106.4C6.04058 106.73 5.98238 107.254 5.98238 107.972V122.407C5.98238 123.105 6.04058 123.629 6.15699 123.979C6.2734 124.328 6.49652 124.561 6.82635 124.677C7.15618 124.793 7.64123 124.871 8.28149 124.91V125.492C7.81585 125.453 7.22409 125.434 6.50622 125.434C5.80776 125.414 5.08989 125.405 4.35262 125.405C3.53775 125.405 2.77138 125.414 2.05351 125.434C1.35504 125.434 0.78269 125.453 0.336449 125.492ZM4.67275 115.422V114.84H16.1683V115.422H4.67275Z" fill="#323536"/>
<path d="M35.3957 104.48C37.297 104.48 38.9656 104.897 40.4013 105.731C41.8565 106.565 42.9818 107.768 43.7773 109.34C44.5727 110.892 44.9705 112.784 44.9705 115.015C44.9705 117.188 44.563 119.089 43.7481 120.719C42.9333 122.349 41.7983 123.62 40.3431 124.531C38.888 125.443 37.2291 125.899 35.3666 125.899C33.4458 125.899 31.7675 125.482 30.3318 124.648C28.8961 123.814 27.7805 122.611 26.985 121.039C26.1895 119.468 25.7918 117.576 25.7918 115.364C25.7918 113.191 26.1992 111.29 27.0141 109.66C27.8484 108.03 28.9834 106.759 30.4191 105.848C31.8548 104.936 33.5137 104.48 35.3957 104.48ZM35.2793 105.004C34.0763 105.004 33.0286 105.44 32.1362 106.313C31.2437 107.186 30.5549 108.389 30.0699 109.922C29.5848 111.455 29.3423 113.23 29.3423 115.248C29.3423 117.304 29.6139 119.099 30.1572 120.632C30.7004 122.145 31.4377 123.319 32.369 124.153C33.3003 124.968 34.3383 125.375 35.483 125.375C36.6859 125.375 37.7239 124.939 38.597 124.066C39.4895 123.193 40.1782 121.99 40.6633 120.457C41.1677 118.905 41.4199 117.13 41.4199 115.131C41.4199 113.055 41.1386 111.261 40.576 109.747C40.0327 108.234 39.2954 107.07 38.3641 106.255C37.4523 105.421 36.424 105.004 35.2793 105.004Z" fill="#323536"/>
<path d="M73.8404 104.887V105.469C73.1807 105.489 72.6859 105.566 72.3561 105.702C72.0263 105.818 71.8032 106.051 71.6868 106.4C71.5897 106.73 71.5412 107.254 71.5412 107.972V122.407C71.5412 123.105 71.5897 123.629 71.6868 123.979C71.8032 124.328 72.0263 124.561 72.3561 124.677C72.6859 124.793 73.1807 124.871 73.8404 124.91V125.492C73.3553 125.453 72.7539 125.434 72.036 125.434C71.3181 125.414 70.5906 125.405 69.8533 125.405C69.0384 125.405 68.272 125.414 67.5542 125.434C66.8363 125.434 66.264 125.453 65.8371 125.492V124.91C66.4968 124.871 66.9915 124.793 67.3213 124.677C67.6706 124.561 67.9034 124.328 68.0198 123.979C68.1362 123.629 68.1944 123.105 68.1944 122.407V106.488L68.3399 106.546L61.1807 125.608H60.715L53.2065 106.75V121.65C53.2065 122.465 53.2647 123.105 53.3811 123.571C53.4976 124.017 53.7498 124.337 54.1378 124.531C54.5259 124.725 55.1176 124.852 55.9131 124.91V125.492C55.5444 125.453 55.0691 125.434 54.487 125.434C53.9244 125.414 53.3908 125.405 52.8864 125.405C52.4014 125.405 51.9163 125.414 51.4313 125.434C50.9462 125.434 50.5485 125.453 50.2381 125.492V124.91C50.8783 124.852 51.3634 124.735 51.6932 124.561C52.023 124.367 52.2461 124.046 52.3626 123.6C52.479 123.154 52.5372 122.543 52.5372 121.767V107.972C52.5372 107.254 52.479 106.73 52.3626 106.4C52.2461 106.051 52.023 105.818 51.6932 105.702C51.3634 105.566 50.8783 105.489 50.2381 105.469V104.887C50.5485 104.907 50.9462 104.926 51.4313 104.945C51.9163 104.965 52.4014 104.974 52.8864 104.974C53.4491 104.974 54.0117 104.965 54.5744 104.945C55.1564 104.926 55.6512 104.907 56.0586 104.887L62.4903 121.417L61.9373 121.796L68.2526 104.974C68.5049 104.974 68.7668 104.974 69.0384 104.974C69.31 104.974 69.5817 104.974 69.8533 104.974C70.5906 104.974 71.3181 104.965 72.036 104.945C72.7539 104.926 73.3553 104.907 73.8404 104.887Z" fill="#323536"/>
<path d="M93.8819 104.887C93.8043 105.624 93.7461 106.342 93.7073 107.041C93.6879 107.72 93.6782 108.244 93.6782 108.612C93.6782 108.981 93.6879 109.33 93.7073 109.66C93.7267 109.99 93.7461 110.261 93.7655 110.475H93.0961C92.9603 109.233 92.7469 108.253 92.4559 107.535C92.1842 106.818 91.7671 106.313 91.2044 106.022C90.6612 105.712 89.8948 105.557 88.9053 105.557H86.8972C86.2764 105.557 85.801 105.615 85.4712 105.731C85.1608 105.828 84.9474 106.042 84.8309 106.371C84.7145 106.682 84.6563 107.177 84.6563 107.856V122.523C84.6563 123.183 84.7145 123.678 84.8309 124.008C84.9474 124.337 85.1608 124.561 85.4712 124.677C85.801 124.774 86.2764 124.823 86.8972 124.823H88.7889C89.8948 124.823 90.7679 124.648 91.4082 124.299C92.0678 123.949 92.5626 123.377 92.8924 122.582C93.2416 121.786 93.5036 120.7 93.6782 119.322H94.3475C94.2893 119.885 94.2602 120.622 94.2602 121.534C94.2602 121.922 94.2699 122.485 94.2893 123.222C94.3281 123.959 94.3863 124.716 94.4639 125.492C93.4745 125.453 92.3589 125.434 91.1171 125.434C89.8754 125.414 88.7695 125.405 87.7994 125.405C87.3532 125.405 86.7808 125.405 86.0824 125.405C85.3839 125.405 84.6272 125.414 83.8123 125.434C83.0169 125.434 82.202 125.443 81.3677 125.463C80.5529 125.463 79.7671 125.472 79.0104 125.492V124.91C79.6701 124.871 80.1648 124.793 80.4946 124.677C80.8245 124.561 81.0379 124.328 81.1349 123.979C81.2513 123.629 81.3095 123.105 81.3095 122.407V107.972C81.3095 107.254 81.2513 106.73 81.1349 106.4C81.0379 106.051 80.8148 105.818 80.4655 105.702C80.1357 105.566 79.6507 105.489 79.0104 105.469V104.887C79.7671 104.907 80.5529 104.926 81.3677 104.945C82.202 104.945 83.0169 104.955 83.8123 104.974C84.6272 104.974 85.3839 104.974 86.0824 104.974C86.7808 104.974 87.3532 104.974 87.7994 104.974C88.6919 104.974 89.7008 104.974 90.8261 104.974C91.9708 104.955 92.9894 104.926 93.8819 104.887ZM89.0508 114.84C89.0508 114.84 89.0508 114.937 89.0508 115.131C89.0508 115.325 89.0508 115.422 89.0508 115.422H83.7832C83.7832 115.422 83.7832 115.325 83.7832 115.131C83.7832 114.937 83.7832 114.84 83.7832 114.84H89.0508ZM89.8948 110.999C89.8172 112.105 89.7784 112.949 89.7784 113.531C89.7978 114.113 89.8075 114.646 89.8075 115.131C89.8075 115.616 89.8172 116.15 89.8366 116.732C89.856 117.314 89.9045 118.158 89.9821 119.264H89.3128C89.2158 118.624 89.0896 118.012 88.9344 117.43C88.7792 116.829 88.4979 116.344 88.0905 115.975C87.7024 115.607 87.0913 115.422 86.257 115.422V114.84C86.8778 114.84 87.3629 114.714 87.7121 114.462C88.0808 114.21 88.3621 113.88 88.5561 113.472C88.7501 113.065 88.8859 112.648 88.9635 112.221C89.0605 111.775 89.1479 111.367 89.2255 110.999H89.8948Z" fill="#323536"/>
<path d="M0.254028 128.988C0.70027 129.007 1.27262 129.027 1.97109 129.046C2.68896 129.065 3.39712 129.075 4.09559 129.075C5.02687 129.075 5.90966 129.065 6.74393 129.046C7.59761 129.027 8.19907 129.017 8.5483 129.017C10.7213 129.017 12.3414 129.444 13.4085 130.297C14.495 131.151 15.0382 132.247 15.0382 133.586C15.0382 134.265 14.8733 134.944 14.5435 135.623C14.233 136.283 13.7189 136.884 13.001 137.428C12.2832 137.951 11.3325 138.369 10.149 138.679V138.737C11.7787 138.912 13.0592 139.261 13.9905 139.785C14.9218 140.309 15.5815 140.939 15.9695 141.677C16.3575 142.394 16.5515 143.151 16.5515 143.947C16.5515 145.091 16.2605 146.091 15.6785 146.944C15.0964 147.778 14.2524 148.428 13.1465 148.894C12.06 149.36 10.7504 149.593 9.21766 149.593C8.79082 149.593 8.14086 149.583 7.26778 149.563C6.4141 149.525 5.37611 149.505 4.15379 149.505C3.41652 149.505 2.68896 149.515 1.97109 149.534C1.27262 149.534 0.70027 149.554 0.254028 149.593V149.01C0.91369 148.972 1.40844 148.894 1.73827 148.778C2.0681 148.661 2.28152 148.428 2.37853 148.079C2.49494 147.73 2.55314 147.206 2.55314 146.508V132.073C2.55314 131.355 2.49494 130.831 2.37853 130.501C2.28152 130.152 2.0584 129.919 1.70916 129.803C1.37933 129.667 0.894288 129.589 0.254028 129.57V128.988ZM7.93714 129.57C7.10287 129.57 6.54992 129.735 6.27829 130.065C6.02607 130.394 5.89995 131.064 5.89995 132.073V146.508C5.89995 147.187 5.95816 147.701 6.07457 148.05C6.19098 148.399 6.3947 148.632 6.68573 148.749C6.99616 148.865 7.4424 148.923 8.02445 148.923C9.77062 148.923 11.0317 148.487 11.8078 147.614C12.6033 146.721 13.001 145.46 13.001 143.83C13.001 142.336 12.6033 141.182 11.8078 140.367C11.0317 139.552 9.74151 139.145 7.93714 139.145H5.11418C5.11418 139.145 5.11418 139.067 5.11418 138.912C5.11418 138.737 5.11418 138.65 5.11418 138.65H7.61701C8.68411 138.65 9.50869 138.437 10.0907 138.01C10.6728 137.563 11.0705 136.981 11.284 136.264C11.4974 135.526 11.6041 134.74 11.6041 133.906C11.6041 132.47 11.3228 131.394 10.7601 130.676C10.1975 129.939 9.25647 129.57 7.93714 129.57Z" fill="#323536"/>
<path d="M28.7651 128.58C30.6665 128.58 32.3351 128.998 33.7708 129.832C35.2259 130.666 36.3512 131.869 37.1467 133.441C37.9422 134.993 38.3399 136.884 38.3399 139.116C38.3399 141.289 37.9325 143.19 37.1176 144.82C36.3027 146.449 35.1677 147.72 33.7126 148.632C32.2575 149.544 30.5986 150 28.736 150C26.8153 150 25.137 149.583 23.7013 148.749C22.2655 147.914 21.1499 146.711 20.3545 145.14C19.559 143.568 19.1612 141.677 19.1612 139.465C19.1612 137.292 19.5687 135.39 20.3836 133.761C21.2178 132.131 22.3528 130.86 23.7886 129.948C25.2243 129.036 26.8832 128.58 28.7651 128.58ZM28.6487 129.104C27.4458 129.104 26.3981 129.541 25.5056 130.414C24.6132 131.287 23.9244 132.49 23.4393 134.023C22.9543 135.555 22.7118 137.331 22.7118 139.348C22.7118 141.405 22.9834 143.2 23.5267 144.732C24.0699 146.246 24.8072 147.42 25.7385 148.254C26.6697 149.069 27.7077 149.476 28.8524 149.476C30.0554 149.476 31.0934 149.04 31.9664 148.167C32.8589 147.293 33.5477 146.091 34.0327 144.558C34.5372 143.006 34.7894 141.23 34.7894 139.232C34.7894 137.156 34.5081 135.361 33.9454 133.848C33.4022 132.335 32.6649 131.171 31.7336 130.356C30.8217 129.521 29.7934 129.104 28.6487 129.104Z" fill="#323536"/>
<path d="M49.0572 128.871L56.1583 147.148C56.4299 147.866 56.7403 148.351 57.0896 148.603C57.4582 148.855 57.7977 148.991 58.1082 149.01V149.593C57.6425 149.554 57.0896 149.534 56.4493 149.534C55.8285 149.515 55.1979 149.505 54.5576 149.505C53.7428 149.505 52.9861 149.515 52.2876 149.534C51.5892 149.534 51.0265 149.554 50.5997 149.593V149.01C51.5892 148.972 52.21 148.807 52.4622 148.516C52.7339 148.205 52.6757 147.555 52.2876 146.566L47.0491 132.422L47.5148 131.898L42.6837 144.529C42.3345 145.402 42.1211 146.129 42.0435 146.711C41.9853 147.293 42.0338 147.749 42.189 148.079C42.3636 148.409 42.6546 148.642 43.0621 148.778C43.4695 148.913 43.974 148.991 44.5754 149.01V149.593C43.9934 149.554 43.4016 149.534 42.8001 149.534C42.2181 149.515 41.6651 149.505 41.1413 149.505C40.6756 149.505 40.2585 149.515 39.8899 149.534C39.5406 149.534 39.2205 149.554 38.9295 149.593V149.01C39.3369 148.913 39.7444 148.671 40.1518 148.283C40.5592 147.895 40.9473 147.235 41.3159 146.304L48.0677 128.871C48.223 128.871 48.3879 128.871 48.5625 128.871C48.7371 128.871 48.902 128.871 49.0572 128.871ZM52.113 141.211V141.793H43.4404L43.7314 141.211H52.113Z" fill="#323536"/>
<path d="M58.4595 128.988C58.9057 129.007 59.478 129.027 60.1765 129.046C60.8944 129.065 61.6025 129.075 62.301 129.075C63.2323 129.075 64.1151 129.065 64.9494 129.046C65.803 129.027 66.4045 129.017 66.7537 129.017C68.4029 129.017 69.7707 129.23 70.8572 129.657C71.9631 130.084 72.778 130.685 73.3018 131.462C73.8451 132.218 74.1167 133.091 74.1167 134.081C74.1167 134.682 73.9906 135.323 73.7384 136.002C73.5056 136.661 73.0884 137.282 72.487 137.864C71.8855 138.427 71.0706 138.892 70.0423 139.261C69.014 139.63 67.7044 139.814 66.1135 139.814H63.3196V139.232H65.8224C67.1224 139.232 68.1119 139.019 68.7909 138.592C69.4894 138.145 69.955 137.563 70.1879 136.846C70.4401 136.108 70.5662 135.293 70.5662 134.401C70.5662 132.868 70.2363 131.685 69.5767 130.85C68.917 129.997 67.7723 129.57 66.1426 129.57C65.3083 129.57 64.7553 129.735 64.4837 130.065C64.2315 130.394 64.1054 131.064 64.1054 132.073V146.508C64.1054 147.206 64.1636 147.73 64.28 148.079C64.3964 148.428 64.6195 148.661 64.9494 148.778C65.2792 148.894 65.7642 148.972 66.4045 149.01V149.593C65.9388 149.554 65.3471 149.534 64.6292 149.534C63.9308 149.515 63.2129 149.505 62.4756 149.505C61.6608 149.505 60.8944 149.515 60.1765 149.534C59.478 149.534 58.9057 149.554 58.4595 149.593V149.01C59.1191 148.972 59.6139 148.894 59.9437 148.778C60.2735 148.661 60.4869 148.428 60.5839 148.079C60.7004 147.73 60.7586 147.206 60.7586 146.508V132.073C60.7586 131.355 60.7004 130.831 60.5839 130.501C60.4869 130.152 60.2638 129.919 59.9146 129.803C59.5848 129.667 59.0997 129.589 58.4595 129.57V128.988ZM63.3778 139.319C64.3673 139.358 65.1628 139.407 65.7642 139.465C66.3657 139.504 66.8701 139.542 67.2776 139.581C67.685 139.62 68.0633 139.669 68.4126 139.727C69.8677 139.921 70.9251 140.309 71.5848 140.891C72.2638 141.473 72.7295 142.365 72.9817 143.568L73.7093 146.537C73.8839 147.371 74.0682 147.963 74.2622 148.312C74.4756 148.661 74.7861 148.836 75.1935 148.836C75.5039 148.816 75.7562 148.729 75.9502 148.574C76.1636 148.399 76.3867 148.167 76.6195 147.875L77.027 148.196C76.5807 148.797 76.1151 149.253 75.6301 149.563C75.145 149.854 74.495 150 73.6802 150C72.8459 150 72.128 149.787 71.5266 149.36C70.9445 148.913 70.5274 148.079 70.2752 146.857L69.6931 143.947C69.5185 143.112 69.3245 142.394 69.111 141.793C68.8976 141.172 68.5969 140.687 68.2089 140.338C67.8402 139.989 67.297 139.814 66.5791 139.814H63.436L63.3778 139.319Z" fill="#323536"/>
<path d="M86.0513 128.988C89.6407 128.988 92.3084 129.861 94.0546 131.607C95.8007 133.334 96.6738 135.817 96.6738 139.057C96.6738 141.172 96.247 143.025 95.3933 144.616C94.5396 146.188 93.2979 147.41 91.6681 148.283C90.0578 149.156 88.0982 149.593 85.7894 149.593C85.4984 149.593 85.1006 149.583 84.5962 149.563C84.1111 149.544 83.6067 149.534 83.0828 149.534C82.559 149.515 82.0837 149.505 81.6568 149.505C80.9196 149.505 80.192 149.515 79.4741 149.534C78.7756 149.534 78.2033 149.554 77.7571 149.593V149.01C78.4167 148.972 78.9115 148.894 79.2413 148.778C79.5711 148.661 79.7845 148.428 79.8815 148.079C79.998 147.73 80.0562 147.206 80.0562 146.508V132.073C80.0562 131.355 79.998 130.831 79.8815 130.501C79.7845 130.152 79.5614 129.919 79.2122 129.803C78.8824 129.667 78.3973 129.589 77.7571 129.57V128.988C78.2033 129.007 78.7756 129.036 79.4741 129.075C80.192 129.095 80.9001 129.095 81.5986 129.075C82.2971 129.056 83.0732 129.036 83.9268 129.017C84.7999 128.998 85.5081 128.988 86.0513 128.988ZM85.5566 129.512C84.6641 129.512 84.082 129.677 83.8104 130.006C83.5388 130.336 83.403 131.006 83.403 132.015V146.566C83.403 147.575 83.5388 148.244 83.8104 148.574C84.1014 148.904 84.6932 149.069 85.5857 149.069C87.5453 149.069 89.0683 148.69 90.1548 147.934C91.2413 147.158 92.0077 146.032 92.4539 144.558C92.9002 143.083 93.1233 141.289 93.1233 139.174C93.1233 137.001 92.8808 135.206 92.3957 133.79C91.9107 132.354 91.1152 131.287 90.0093 130.588C88.9228 129.871 87.4386 129.512 85.5566 129.512Z" fill="#323536"/>
<path fill-rule="evenodd" clip-rule="evenodd" d="M11.7625 22.8246L2.34423 28.2191L2.34423 92.337L92.6943 92.337V28.2191L47.5193 2.34423L22.4857 16.6827L22.4857 10.5492L11.7625 10.5492V22.8246ZM1.17911 26.185C0.449863 26.6026 0 27.3787 0 28.2191V92.337C0 93.6317 1.04955 94.6812 2.34423 94.6812H92.6943C93.989 94.6812 95.0386 93.6317 95.0386 92.337V28.2191C95.0386 27.3787 94.5887 26.6026 93.8594 26.185L48.6844 0.310044C47.9627 -0.103348 47.0759 -0.103348 46.3542 0.310045L24.8299 12.6385V10.5492C24.8299 10.3519 24.8055 10.1603 24.7596 9.97721C24.5043 8.95901 23.5831 8.20501 22.4857 8.20501H11.7625C10.4678 8.20501 9.41827 9.25455 9.41827 10.5492V21.4658L1.17911 26.185ZM72.6727 57.6165C72.6727 71.5083 61.4111 82.7699 47.5193 82.7699C33.6274 82.7699 22.3658 71.5083 22.3658 57.6165C22.3658 43.7246 33.6274 32.463 47.5193 32.463C61.4111 32.463 72.6727 43.7246 72.6727 57.6165ZM70.3285 57.6165C70.3285 70.2137 60.1165 80.4257 47.5193 80.4257C34.9221 80.4257 24.71 70.2137 24.71 57.6165C24.71 45.0193 34.9221 34.8072 47.5193 34.8072C60.1165 34.8072 70.3285 45.0193 70.3285 57.6165Z" fill="#323536"/>
<circle cx="69.378" cy="31.0058" r="4.75193" fill="#323536"/>
</svg>
