<svg width="61" height="60" viewBox="0 0 61 60" fill="none" xmlns="http://www.w3.org/2000/svg">
<path d="M59.6434 38.4845L52.4889 45.6422L50.7215 43.8746L57.0936 37.4995H35.5976V34.9994H57.2561L50.7215 28.4643L52.4889 26.6968L59.6434 33.8519C60.9208 35.1294 60.9208 37.207 59.6434 38.4845ZM20.5987 27.4993C19.2188 27.4993 18.0989 28.6193 18.0989 29.9993C18.0989 31.3794 19.2188 32.4994 20.5987 32.4994C21.9786 32.4994 23.0985 31.3794 23.0985 29.9993C23.0985 28.6193 21.9786 27.4993 20.5987 27.4993ZM38.0974 42.4996H40.5973V60H0.600098V9.74887C0.600098 6.78381 2.71245 4.20625 5.62474 3.62123L23.1235 0.121155C24.9659 -0.243853 26.8582 0.223657 28.3106 1.41868C29.4355 2.34121 30.1755 3.60623 30.458 5.00126H34.3477C37.795 5.00126 40.5973 7.80383 40.5973 11.2514V30.0018H38.0974V11.2514C38.0974 9.18386 36.4151 7.50132 34.3477 7.50132H30.598V57.5024H38.0974V42.4996ZM28.0981 6.25129C28.0981 5.12377 27.5982 4.06624 26.7257 3.35123C25.8533 2.63621 24.7184 2.35621 23.6135 2.57121L6.11471 6.07129C4.36733 6.4238 3.09992 7.96883 3.09992 9.74887V57.4999H28.0981V6.25129Z" fill="#6B7254"/>
</svg>
