<svg width="40" height="40" viewBox="0 0 40 40" fill="none" xmlns="http://www.w3.org/2000/svg">
<path d="M32.5 40H27.5C27.0333 40 26.6667 39.6333 26.6667 39.1667C26.6667 38.7 27.0333 38.3333 27.5 38.3333H32.5C35.7167 38.3333 38.3333 35.7167 38.3333 32.5V27.5C38.3333 27.0333 38.7 26.6667 39.1667 26.6667C39.6333 26.6667 40 27.0333 40 27.5V32.5C40 36.6333 36.6333 40 32.5 40ZM12.5 40H7.5C3.36667 40 0 36.6333 0 32.5V27.5C0 27.0333 0.366667 26.6667 0.833333 26.6667C1.3 26.6667 1.66667 27.0333 1.66667 27.5V32.5C1.66667 35.7167 4.28333 38.3333 7.5 38.3333H12.5C12.9667 38.3333 13.3333 38.7 13.3333 39.1667C13.3333 39.6333 12.9667 40 12.5 40ZM14.5667 28.3333C14.2167 28.3333 13.8667 28.2167 13.5667 28C13 27.5833 12.7667 26.8333 12.9833 26.1667L14.55 21.15L10.6 17.9333C10.05 17.4667 9.86667 16.7333 10.1 16.0833C10.3333 15.4333 10.9667 15 11.6667 15H16.6667L18.4333 10.25C18.6667 9.61667 19.2833 9.21667 20 9.21667C20.7167 9.21667 21.3333 9.61667 21.5667 10.25L23.3333 15H28.3333C29.0333 15 29.6667 15.4333 29.9 16.1C30.1333 16.75 29.95 17.5 29.4167 17.9333L25.4667 21.15L27.1 26.1167C27.3167 26.7833 27.1 27.5333 26.5333 27.95C25.9667 28.3833 25.2 28.4167 24.6167 28.0333L20.0167 25.05L15.5 28.0667C15.2167 28.25 14.8833 28.35 14.5667 28.35V28.3333ZM11.6667 16.65L16.0333 20.2C16.3 20.4167 16.4 20.7667 16.3 21.1L14.5667 26.6667L19.5333 23.35C19.8167 23.1667 20.1667 23.1667 20.45 23.35L25.5 26.6333L23.6833 21.1167C23.5833 20.7833 23.6833 20.4333 23.95 20.2167L28.3333 16.65H22.7333C22.3833 16.6667 22.0667 16.45 21.95 16.1167L19.9833 10.8167L18.0167 16.1167C17.9 16.45 17.5833 16.6667 17.2333 16.6667H11.65L11.6667 16.65ZM39.1667 13.3333C38.7 13.3333 38.3333 12.9667 38.3333 12.5V7.5C38.3333 4.28333 35.7167 1.66667 32.5 1.66667H27.5C27.0333 1.66667 26.6667 1.3 26.6667 0.833333C26.6667 0.366667 27.0333 0 27.5 0H32.5C36.6333 0 40 3.36667 40 7.5V12.5C40 12.9667 39.6333 13.3333 39.1667 13.3333ZM0.833333 13.3333C0.366667 13.3333 0 12.9667 0 12.5V7.5C0 3.36667 3.36667 0 7.5 0H12.5C12.9667 0 13.3333 0.366667 13.3333 0.833333C13.3333 1.3 12.9667 1.66667 12.5 1.66667H7.5C4.28333 1.66667 1.66667 4.28333 1.66667 7.5V12.5C1.66667 12.9667 1.3 13.3333 0.833333 13.3333Z" fill="#DE6F57"/>
</svg>
