<svg width="50" height="50" viewBox="0 0 50 50" fill="none" xmlns="http://www.w3.org/2000/svg">
<path d="M33.3333 22.3958C33.3333 24.8958 30.25 28.9375 25.3125 32.8958C25.125 33.0417 24.875 33.0417 24.6875 32.8958C19.7292 28.9167 16.6667 24.8958 16.6667 22.3958C16.6667 20.3958 18.0625 18.75 19.7917 18.75C21.5208 18.75 22.9167 20.3958 22.9167 22.3958C22.9167 23.5417 23.8542 24.4792 25 24.4792C26.1458 24.4792 27.0833 23.5417 27.0833 22.3958C27.0833 20.3958 28.4792 18.75 30.2083 18.75C31.9375 18.75 33.3333 20.3958 33.3333 22.3958ZM50 25C50 38.7917 38.7917 50 25 50C11.2083 50 0 38.7917 0 25C0 11.2083 11.2083 0 25 0C38.7917 0 50 11.2083 50 25ZM37.5 22.3958C37.5 18.0833 34.2292 14.5833 30.2083 14.5833C28.1667 14.5833 26.3333 15.4792 25 16.9375C23.6667 15.4792 21.8333 14.5833 19.7917 14.5833C15.7708 14.5833 12.5 18.0833 12.5 22.3958C12.5 27.4167 17.7083 32.6458 22.0833 36.1458C22.9375 36.8333 23.9583 37.1667 25 37.1667C26.0417 37.1667 27.0833 36.8333 27.9167 36.1458C32.2917 32.6458 37.5 27.3958 37.5 22.3958Z" fill="#DE6F57"/>
</svg>
