<svg width="31" height="30" viewBox="0 0 31 30" fill="none" xmlns="http://www.w3.org/2000/svg">
<path fill-rule="evenodd" clip-rule="evenodd" d="M23.4957 12.4821C23.4957 18.5647 18.5647 23.4957 12.4821 23.4957C6.39944 23.4957 1.46848 18.5647 1.46848 12.4821C1.46848 6.39944 6.39944 1.46848 12.4821 1.46848C18.5647 1.46848 23.4957 6.39944 23.4957 12.4821ZM20.8832 21.7138C18.6656 23.7331 15.7176 24.9642 12.4821 24.9642C5.58842 24.9642 0 19.3757 0 12.4821C0 5.58842 5.58842 0 12.4821 0C19.3757 0 24.9642 5.58842 24.9642 12.4821C24.9642 15.6118 23.8123 18.4725 21.9094 20.6633L29.9927 28.7466C30.2794 29.0333 30.2794 29.4982 29.9927 29.7849C29.7059 30.0717 29.241 30.0717 28.9543 29.7849L20.8832 21.7138Z" fill="#6B7254"/>
</svg>
