<svg width="50" height="60" viewBox="0 0 50 60" fill="none" xmlns="http://www.w3.org/2000/svg">
<path d="M45.0344 13.4702L36.3615 4.75768C33.3054 1.68768 29.244 -0.00231934 24.9237 -0.00231934H11.1989C5.02456 -0.00231934 0 5.04518 0 11.2477V48.7477C0 54.9502 5.02456 59.9977 11.1989 59.9977H38.5739C44.7482 59.9977 49.7727 54.9502 49.7727 48.7477V24.9602C49.7727 20.6202 48.0904 16.5377 45.0344 13.4702ZM43.2749 15.2377C44.6461 16.6152 45.6889 18.2327 46.3683 19.9977H33.5966C31.5385 19.9977 29.8636 18.3152 29.8636 16.2477V3.41768C31.6206 4.10018 33.2308 5.14768 34.602 6.52518L43.2749 15.2377ZM47.2841 48.7477C47.2841 53.5727 43.3769 57.4977 38.5739 57.4977H11.1989C6.3958 57.4977 2.48864 53.5727 2.48864 48.7477V11.2477C2.48864 6.42268 6.3958 2.49768 11.1989 2.49768H24.9237C25.7549 2.49768 26.5737 2.57268 27.375 2.71768V16.2477C27.375 19.6927 30.1673 22.4977 33.5966 22.4977H47.0651C47.2094 23.3027 47.2841 24.1252 47.2841 24.9602V48.7477ZM34.6244 35.3727C35.1047 35.8652 35.0947 36.6577 34.6045 37.1402C34.3631 37.3777 34.047 37.4977 33.7335 37.4977C33.4099 37.4977 33.0889 37.3727 32.845 37.1227L26.5861 30.6977C26.4467 30.5577 26.2949 30.4402 26.1307 30.3427V48.7502C26.1307 49.4402 25.5732 50.0002 24.8864 50.0002C24.1995 50.0002 23.642 49.4402 23.642 48.7502V30.3452C23.4778 30.4452 23.321 30.5652 23.1767 30.7102L16.9277 37.1252C16.4474 37.6202 15.661 37.6302 15.1682 37.1452C14.678 36.6627 14.668 35.8702 15.1483 35.3777L21.4073 28.9527C22.3629 27.9927 23.6122 27.5102 24.8615 27.5027C24.8689 27.5027 24.8764 27.5027 24.8839 27.5027C24.8913 27.5027 24.8988 27.5027 24.9063 27.5027C26.1556 27.5077 27.4024 27.9877 28.3505 28.9427L34.6194 35.3777L34.6244 35.3727Z" fill="#6B7254"/>
</svg>
